<svg version="1" xmlns="http://www.w3.org/2000/svg" width="682.667" height="682.667" viewBox="0 0 512.000000 512.000000"><path d="M8 164.7c0 128.7.3 158.7 1.4 167.3C20.1 412 87.8 477.7 170 487.9c5.6.7 61.2 1.1 164.3 1.1h155.8l-.4-165.8c-.4-180.5 0-168.8-6.1-191.5-7.1-26.9-20.4-50.2-40.1-70.5C420 36.9 393.9 21.7 362 13.6 339.8 8 340.4 8 167.3 8H8v156.7zM261 40c59.2 4.4 104.8 31.2 130.4 76.8 12.5 22.3 20 45.5 24.8 77.2 2.1 13.6 1.7 63.6-.5 78-6.5 41.4-20 72.9-42 98.1-4 4.6-9.7 10.4-12.5 12.7-4.6 3.9-5.2 4.1-6 2.5-1.4-2.6-5.7-19.3-7.6-29.6-.9-4.8-2.7-12.1-4-16.1l-2.3-7.5 5.6-11.3c13.4-26.6 19-57.5 17.8-97.7-.6-19.2-2.3-34.6-5.3-46.6-10.6-42.7-32.5-71.9-64.3-85.6-30.6-13.1-73-12.5-101.5 1.5-36.2 17.9-57.9 54.4-64.7 109.1-1.4 11.6-1.4 48.3 0 60 3.9 31.5 12.2 55.1 26.2 74.8 15 21.1 34.6 34.5 60.8 41.5 8.7 2.3 11.5 2.5 29.1 2.6 22.3.1 30.9-1.2 45-7 4.7-1.9 9.2-3.6 10-3.7 1.1-.2 1.9 2.3 3.3 10.8 1.1 6 3.4 15.5 5.3 21 1.8 5.5 3 10.3 2.6 10.6-.4.4-4.7 1.9-9.7 3.3-37.7 10.4-82.3 9.7-117.5-2.1-53-17.7-88.7-58.8-103-118.8-5.3-22.1-6.4-33.3-6.4-63.5 0-29.5 1.1-41.3 5.9-61.5 8.7-36.8 27.2-69.8 50.7-90.4 26.1-22.8 60-36.3 98.8-39.1 15.6-1.1 16.4-1.1 31 0z"/></svg>